<?xml version="1.0" standalone="no"?>
<!DOCTYPE svg PUBLIC "-//W3C//DTD SVG 20010904//EN"
 "http://www.w3.org/TR/2001/REC-SVG-20010904/DTD/svg10.dtd">
<svg version="1.0" xmlns="http://www.w3.org/2000/svg"
 width="1000.000000pt" height="1000.000000pt" viewBox="0 0 1000.000000 1000.000000"
 preserveAspectRatio="xMidYMid meet">
<metadata>
Created by potrace 1.11, written by Peter Selinger 2001-2013
</metadata>
<g transform="translate(0.000000,1000.000000) scale(0.100000,-0.100000)"
fill="#000000" stroke="none">
<path d="M2011 9602 c-17 -59 -79 -258 -136 -442 -57 -184 -185 -598 -285
-920 -100 -322 -229 -737 -286 -923 -58 -187 -104 -340 -102 -342 8 -8 2741
-17 2735 -9 -3 5 -166 243 -362 528 l-357 520 24 17 c32 25 316 170 418 214
582 251 1248 337 1885 244 1361 -198 2496 -1188 2880 -2511 90 -308 137 -642
137 -973 1 -377 -50 -710 -158 -1046 -24 -75 -44 -139 -44 -143 0 -3 184 -6
410 -6 l409 0 11 38 c59 213 106 460 136 717 25 208 25 670 0 880 -63 544
-201 1015 -432 1477 -94 188 -142 270 -270 463 -484 731 -1187 1301 -1999
1622 -361 143 -701 228 -1105 278 -177 22 -612 31 -796 16 -666 -54 -1278
-245 -1840 -572 -55 -33 -105 -59 -110 -59 -5 0 -166 230 -359 511 -192 281
-355 514 -361 519 -7 6 -21 -26 -43 -98z"/>
<path d="M880 6175 c0 -2 -16 -66 -35 -142 -46 -184 -90 -449 -111 -663 -13
-137 -15 -237 -11 -460 7 -363 36 -602 112 -915 258 -1072 914 -2004 1836
-2608 544 -356 1158 -584 1794 -667 654 -85 1311 -21 1925 186 273 93 576 231
807 368 84 49 93 53 106 37 8 -9 150 -214 317 -456 353 -513 391 -567 395
-563 3 3 204 646 385 1228 204 659 378 1218 415 1337 25 77 45 146 45 151 0 8
-2716 24 -2728 16 -2 -1 158 -238 356 -526 l360 -523 -46 -29 c-165 -104 -519
-258 -752 -329 -371 -112 -684 -153 -1100 -144 -458 11 -816 83 -1233 248
-865 344 -1590 1062 -1947 1929 -124 303 -202 605 -246 955 -21 168 -25 585
-6 740 31 254 95 553 161 748 l30 87 -415 0 c-228 0 -414 -2 -414 -5z"/>
</g>
</svg>
